{
    "asset" : {
        "generator" : "Khronos glTF Blender I/O v3.4.50",
        "version" : "2.0"
    },
    "scene" : 0,
    "scenes" : [
        {
            "name" : "Scene",
            "nodes" : [
                0
            ]
        }
    ],
    "nodes" : [
        {
            "mesh" : 0,
            "name" : "WaterBottle",
            "rotation" : [
                0,
                1,
                0,
                0
            ]
        }
    ],
    "materials" : [
        {
            "emissiveFactor" : [
                1,
                1,
                1
            ],
            "emissiveTexture" : {
                "index" : 0
            },
            "name" : "BottleMat",
            "normalTexture" : {
                "index" : 1
            },
            "occlusionTexture" : {
                "index" : 2
            },
            "pbrMetallicRoughness" : {
                "baseColorTexture" : {
                    "index" : 3
                },
                "metallicRoughnessTexture" : {
                    "index" : 2
                }
            }
        }
    ],
    "meshes" : [
        {
            "name" : "WaterBottle",
            "primitives" : [
                {
                    "attributes" : {
                        "POSITION" : 0,
                        "TEXCOORD_0" : 1,
                        "NORMAL" : 2
                    },
                    "indices" : 3,
                    "material" : 0
                }
            ]
        }
    ],
    "textures" : [
        {
            "sampler" : 0,
            "source" : 0
        },
        {
            "sampler" : 0,
            "source" : 1
        },
        {
            "sampler" : 0,
            "source" : 2
        },
        {
            "sampler" : 0,
            "source" : 3
        }
    ],
    "images" : [
        {
            "mimeType" : "image/png",
            "name" : "WaterBottle_emissive",
            "uri" : "tex/WaterBottle_emissive.png"
        },
        {
            "mimeType" : "image/png",
            "name" : "WaterBottle_normal",
            "uri" : "tex/WaterBottle_normal.png"
        },
        {
            "mimeType" : "image/png",
            "name" : "WaterBottle_occlusionRoughnessMetallic",
            "uri" : "tex/WaterBottle_occlusionRoughnessMetallic.png"
        },
        {
            "mimeType" : "image/png",
            "name" : "WaterBottle_baseColor",
            "uri" : "tex/WaterBottle_baseColor.png"
        }
    ],
    "accessors" : [
        {
            "bufferView" : 0,
            "componentType" : 5126,
            "count" : 2549,
            "max" : [
                108.90001678466797,
                260.440673828125,
                108.9000473022461
            ],
            "min" : [
                -108.90001678466797,
                -260.440673828125,
                -108.9000473022461
            ],
            "type" : "VEC3"
        },
        {
            "bufferView" : 1,
            "componentType" : 5126,
            "count" : 2549,
            "type" : "VEC2"
        },
        {
            "bufferView" : 2,
            "componentType" : 5126,
            "count" : 2549,
            "type" : "VEC3"
        },
        {
            "bufferView" : 3,
            "componentType" : 5123,
            "count" : 13530,
            "type" : "SCALAR"
        }
    ],
    "bufferViews" : [
        {
            "buffer" : 0,
            "byteLength" : 30588,
            "byteOffset" : 0,
            "target" : 34962
        },
        {
            "buffer" : 0,
            "byteLength" : 20392,
            "byteOffset" : 30588,
            "target" : 34962
        },
        {
            "buffer" : 0,
            "byteLength" : 30588,
            "byteOffset" : 50980,
            "target" : 34962
        },
        {
            "buffer" : 0,
            "byteLength" : 27060,
            "byteOffset" : 81568,
            "target" : 34963
        }
    ],
    "samplers" : [
        {
            "magFilter" : 9729,
            "minFilter" : 9987
        }
    ],
    "buffers" : [
        {
            "byteLength" : 108628,
            "uri" : "bottle.bin"
        }
    ]
}
